<?xml version="1.0" encoding="utf-8"?>
<!-- Generator: Adobe Illustrator 27.2.0, SVG Export Plug-In . SVG Version: 6.00 Build 0)  -->
<svg version="1.1" id="Layer_1" xmlns="http://www.w3.org/2000/svg" xmlns:xlink="http://www.w3.org/1999/xlink" x="0px" y="0px"
	 viewBox="0 0 202 176" enable-background="new 0 0 202 176" xml:space="preserve">
<path fill="#FFEC00" d="M118.61,218.08c0.05,0.42,0.08,0.85,0.1,1.28c0.99-0.06,1.99-0.1,2.98-0.14
	C120.67,218.83,119.65,218.45,118.61,218.08z"/>
<g>
	<path fill="#FFEC00" d="M185.41,173.93c1.49-0.05,2.93,0.2,4.3,0.65c1.05-0.25,2.13-0.39,3.22-0.39c2.31,0,4.44,0.53,6.35,1.45
		c0.97,0.13,1.92,0.26,1.96,0.27c0.02,0,0.33,0.14,0.76,0.32V40H1v133.46c23.16,0.13,46.5,0.81,69.58,2.52
		c1.22-0.34,2.48-0.54,3.75-0.54c25.53-0.09,51.02-2.38,76.55-2.17c8.79,0.07,17.5,0.77,26.09,2.29c0.5-0.15,1-0.32,1.5-0.49
		C180.69,174.32,183.11,174.01,185.41,173.93z"/>
	<text transform="matrix(1.0438 0 0 1 10.0005 121.8262)" font-family="'LiGothicMed'" font-size="75.4212px">toolUp</text>
	<path stroke="#000000" stroke-miterlimit="10" d="M108.03,70.66c-1.08-1.46-2.32-2.73-3.69-3.73c-1.07,1.1-2.26,2.38-3.31,3.56
		c0,0.11,0,0.21-0.01,0.32l6.79-0.22c0.08,0.06,0.16,0.11,0.24,0.17C108.04,70.73,108.04,70.69,108.03,70.66z"/>
	<g>
		<g>
			<path d="M155.08,71.37c1.53-0.02,2.98-0.62,4.11-1.65c0.28-0.25,0.44-0.69,0.44-1.06c0-0.37-0.16-0.81-0.44-1.06
				c-0.29-0.26-0.66-0.46-1.06-0.44c-0.41,0.02-0.76,0.16-1.06,0.44c-0.1,0.09-0.2,0.18-0.31,0.26c0.1-0.08,0.2-0.16,0.3-0.23
				c-0.31,0.23-0.64,0.43-0.99,0.58c0.12-0.05,0.24-0.1,0.36-0.15c-0.39,0.16-0.79,0.27-1.2,0.33c0.13-0.02,0.27-0.04,0.4-0.05
				c-0.18,0.02-0.36,0.04-0.55,0.04c-0.39,0.01-0.79,0.16-1.06,0.44c-0.26,0.26-0.46,0.69-0.44,1.06c0.02,0.39,0.14,0.79,0.44,1.06
				C154.31,71.2,154.67,71.38,155.08,71.37L155.08,71.37z"/>
		</g>
	</g>
	<g>
		<g>
			<path d="M155,66c0,1.17,0,2.34,0,3.5c0,0.17,0,0.33,0,0.5c0,0.78,0.69,1.54,1.5,1.5c0.81-0.04,1.5-0.66,1.5-1.5
				c0-1.17,0-2.34,0-3.5c0-0.17,0-0.33,0-0.5c0-0.78-0.69-1.54-1.5-1.5C155.69,64.54,155,65.16,155,66L155,66z"/>
		</g>
	</g>
	<g>
		<g>
			<path d="M156.71,68.75c0.83-0.01,1.66-0.02,2.49-0.03c0.39,0,0.79-0.16,1.06-0.44c0.26-0.26,0.46-0.69,0.44-1.06
				c-0.02-0.39-0.14-0.79-0.44-1.06c-0.29-0.27-0.66-0.44-1.06-0.44c-0.83,0.01-1.66,0.02-2.49,0.03c-0.39,0-0.79,0.16-1.06,0.44
				c-0.26,0.26-0.46,0.69-0.44,1.06c0.02,0.39,0.14,0.79,0.44,1.06C155.94,68.58,156.3,68.76,156.71,68.75L156.71,68.75z"/>
		</g>
	</g>
	<g>
		<g>
			<path d="M153.56,68.18c0.17,0.05,0.33,0.11,0.49,0.18c-0.12-0.05-0.24-0.1-0.36-0.15c0.45,0.19,0.87,0.44,1.26,0.74
				c-0.1-0.08-0.2-0.16-0.3-0.23c0.39,0.3,0.73,0.65,1.03,1.03c-0.08-0.1-0.16-0.2-0.23-0.3c0.08,0.1,0.15,0.2,0.22,0.31
				c0.22,0.33,0.51,0.58,0.9,0.69c0.36,0.1,0.84,0.05,1.16-0.15c0.32-0.21,0.6-0.51,0.69-0.9c0.09-0.38,0.07-0.82-0.15-1.16
				c-0.94-1.4-2.29-2.43-3.89-2.95c-0.36-0.12-0.83-0.04-1.16,0.15c-0.31,0.18-0.61,0.54-0.69,0.9
				C152.33,67.15,152.76,67.92,153.56,68.18L153.56,68.18z"/>
		</g>
	</g>
	<g>
		<g>
			<path d="M157.2,63.73c-0.05-0.07-0.11-0.13-0.16-0.2c-0.04-0.05-0.16-0.23,0-0.01c-0.09-0.13-0.18-0.25-0.26-0.38
				c-0.08-0.13-0.15-0.26-0.21-0.4c0.12,0.26,0.03,0.06,0.02,0c-0.01-0.05-0.04-0.34-0.04-0.12c0,0.26,0.03-0.21,0.02-0.24
				c0.21,0.33-0.13,0.17,0.01,0.08c0.01-0.03,0.02-0.07,0.03-0.1c-0.02,0.05-0.04,0.11-0.07,0.16c0.04-0.08,0.16-0.2-0.06,0.04
				c0.06-0.07,0.19-0.15-0.06,0.02c0.03-0.02,0.19-0.13,0.02-0.02c-0.21,0.12,0.09-0.05,0.13-0.02c0.01,0.01-0.39,0-0.06,0.02
				c0.03,0,0.23,0,0.23,0.01c0,0.01-0.29-0.06-0.11-0.02c0.08,0.02,0.15,0.03,0.23,0.05c0.13,0.03,0.26,0.07,0.39,0.11
				c0.08,0.03,0.15,0.05,0.22,0.08c0.04,0.02,0.34,0.15,0.15,0.06c-0.17-0.08,0.2,0.1,0.25,0.13c0.14,0.07,0.28,0.15,0.42,0.23
				c0.12,0.07,0.24,0.15,0.35,0.23c0.07,0.04,0.13,0.09,0.19,0.14c0.15,0.1-0.19-0.16,0.03,0.02c0.23,0.2,0.45,0.39,0.65,0.61
				c0.1,0.1,0.19,0.21,0.28,0.31c0.18,0.2,0.02,0.02-0.01-0.02c0.06,0.08,0.12,0.16,0.17,0.24c0.09,0.13,0.17,0.25,0.24,0.39
				c0.04,0.08,0.08,0.16,0.13,0.23c0.04,0.08,0.06,0.24,0,0.01c0.02,0.08,0.05,0.17,0.08,0.25c0.01,0.03,0.04,0.24,0.02,0.06
				c-0.03-0.2-0.01,0.08-0.01,0.12c0.03,0.18,0.09-0.29,0,0.01c-0.01,0.03-0.05,0.22-0.06,0.22c-0.02,0,0.14-0.25,0.04-0.1
				c-0.04,0.06-0.07,0.13-0.11,0.2c-0.03,0.04-0.18,0.23-0.05,0.08c0.12-0.14-0.01,0.01-0.03,0.03c-0.06,0.05-0.11,0.11-0.16,0.17
				c-0.04,0.04-0.12,0.13-0.18,0.15c0.04-0.03,0.08-0.06,0.12-0.1c-0.05,0.04-0.11,0.07-0.16,0.11c-0.13,0.08-0.26,0.15-0.39,0.22
				c-0.08,0.04-0.15,0.07-0.23,0.11c0.05-0.02,0.27-0.1,0-0.01c-0.32,0.12-0.65,0.22-0.98,0.32c-0.18,0.06-0.36,0.1-0.55,0.15
				c0.3-0.07,0-0.02-0.02-0.01c-0.05,0-0.09,0-0.14-0.01c0.21,0.03,0.26,0.03,0.14,0c-0.18-0.04,0.15,0.09,0.19,0.11
				c0.08,0.07,0.09,0.08,0.03,0.02c-0.08-0.08-0.05-0.05,0.09,0.1c0.1,0.18,0.14,0.46,0.09,0.66c0.05-0.18-0.01-0.02-0.04,0.07
				c0.09-0.22,0-0.01-0.04,0.05c0.15-0.21-0.13,0.1,0.02,0c0.17-0.12-0.22,0.05-0.01,0c0.1-0.02,0.2-0.06,0.31-0.09
				c0.14-0.03,0.34-0.03,0.47-0.1c-0.23,0.11-0.23,0.01-0.08,0.03c-0.19-0.02-0.4-0.09-0.53-0.23c0.54,0.57,1.58,0.59,2.12,0
				c0.56-0.61,0.58-1.52,0-2.12c-0.94-0.98-2.64-0.7-3.73-0.12c-1.24,0.66-1.84,2.19-1.1,3.45c0.33,0.56,0.96,0.96,1.59,1.1
				c0.72,0.16,1.44,0,2.13-0.21c1.06-0.33,2.08-0.73,2.93-1.46c0.88-0.76,1.44-1.96,1.33-3.13c-0.12-1.22-0.78-2.25-1.56-3.16
				c-0.65-0.75-1.47-1.39-2.34-1.86c-0.89-0.48-1.95-0.9-2.98-0.88c-1.59,0.03-2.76,1.14-2.93,2.71c-0.15,1.4,0.67,2.54,1.51,3.57
				c0.5,0.61,1.61,0.55,2.12,0C157.8,65.2,157.73,64.38,157.2,63.73L157.2,63.73z"/>
		</g>
	</g>
	<g>
		<g>
			<path d="M152.96,63.95c0.16,0.19,0.32,0.38,0.48,0.58c0.04,0.05,0.08,0.1,0.12,0.15c0.2,0.25-0.15-0.2-0.03-0.04
				c0.07,0.1,0.15,0.2,0.23,0.3c0.31,0.42,0.6,0.85,0.87,1.29c0.55,0.88,1.03,1.8,1.44,2.75c0.14,0.32,0.58,0.6,0.9,0.69
				c0.36,0.1,0.84,0.05,1.16-0.15c0.32-0.21,0.6-0.51,0.69-0.9c0.1-0.42,0.02-0.77-0.15-1.16c-0.89-2.06-2.11-3.94-3.57-5.64
				c-0.51-0.6-1.6-0.57-2.12,0C152.37,62.47,152.41,63.31,152.96,63.95L152.96,63.95z"/>
		</g>
	</g>
	<g>
		<g>
			<path fill="#FCFCFC" d="M153.74,60.44c0.06,2.07,0.65,4.02,1.41,5.93c0.37,0.93,0.75,1.84,1.1,2.78
				c0.29,0.77,0.83,1.85,0.77,2.67c0.07-0.25,0.14-0.5,0.2-0.76c-0.02,0.05-0.04,0.1-0.07,0.16c0.18-0.18,0.36-0.36,0.54-0.54
				c-0.04,0.03-0.09,0.06-0.13,0.09c0.25-0.07,0.5-0.14,0.76-0.2c-0.06-0.01-0.12-0.02-0.19-0.02c0.35,0.15,0.71,0.29,1.06,0.44
				c-0.36-0.29-0.57-1.12-0.71-1.56c-0.18-0.57-0.32-1.16-0.41-1.75c-0.19-1.26-0.17-2.56-0.07-3.82c0.22-2.9,0.91-5.74,1.17-8.63
				c-1,0-2,0-3,0c-0.46,5.99,1.11,11.85,1.72,17.77c0.98-0.13,1.96-0.27,2.95-0.4c-0.29-1.75-0.44-3.52-0.46-5.3
				c-0.01-0.87,0.01-1.74,0.06-2.6c0.04-0.76-0.01-1.7,0.28-2.41c-0.13,0.22-0.26,0.44-0.39,0.66c0.05-0.04,0.09-0.09,0.14-0.13
				c-0.22,0.13-0.44,0.26-0.66,0.39c0.06-0.01,0.12-0.02,0.17-0.04c-0.27,0-0.53,0-0.8,0c-0.01,0-0.02,0.01-0.03,0.01
				c-0.18-0.18-0.36-0.36-0.54-0.54c0.43,0.66,0.59,1.64,0.84,2.39c0.28,0.86,0.57,1.72,0.85,2.58c0.84-0.49,1.67-0.97,2.51-1.46
				c-0.88-0.89-2.02-2.41-1.93-3.73c-0.07,0.25-0.14,0.5-0.2,0.76c0.03-0.07,0.07-0.14,0.1-0.2c-0.18,0.18-0.36,0.36-0.54,0.54
				c0,0,0.01,0.01,0.01,0.01c-0.27,0-0.53,0-0.8,0c-0.35-0.08-0.22-0.28-0.18,0.15c0.02,0.21,0.11,0.43,0.16,0.64
				c0.1,0.46,0.18,0.92,0.22,1.39c0.08,0.94,0.05,1.87-0.07,2.8c0.98-0.13,1.96-0.27,2.95-0.4c-0.19-0.61,0.8-1.64,1.01-2.23
				c0.34-0.92,0.28-1.92-0.23-2.76c-0.84-1.39-3.38-0.48-2.74,1.16c0.47,1.21,0.95,2.43,1.42,3.64c0.84-0.49,1.67-0.97,2.51-1.46
				c-3.26-2.83-6.72-5.41-10.37-7.73c-1.03-0.65-2.17,0.22-2.26,1.3c-0.25,3.25,0.14,6.53,1.16,9.63c0.13-0.49,0.26-0.97,0.39-1.46
				c-0.02,0.03-0.05,0.06-0.07,0.1c-0.5,0.64-0.62,1.5,0,2.12c0.52,0.52,1.62,0.64,2.12,0c0.69-0.89,0.45-1.52,0.16-2.51
				c-0.25-0.86-0.44-1.73-0.59-2.61c-0.28-1.74-0.31-3.51-0.17-5.27c-0.75,0.43-1.5,0.86-2.26,1.3c3.43,2.18,6.69,4.6,9.76,7.26
				c1.01,0.88,3.1,0.06,2.51-1.46c-0.47-1.21-0.95-2.43-1.42-3.64c-0.91,0.39-1.83,0.77-2.74,1.16c0.21,0.34-0.58,1.22-0.74,1.53
				c-0.45,0.86-0.63,1.81-0.34,2.75c0.54,1.7,2.75,1.23,2.95-0.4c0.24-2,0.29-8.91-3.34-7.84c-1.82,0.54-1.42,2.63-0.91,3.97
				c0.52,1.38,1.31,2.6,2.35,3.64c1.02,1.03,2.99-0.01,2.51-1.46c-0.57-1.73-1-3.63-1.77-5.28c-0.83-1.78-3.3-1.65-3.71,0.35
				c-0.37,1.79-0.36,3.77-0.33,5.59c0.03,1.99,0.24,3.96,0.57,5.92c0.27,1.65,3.12,1.29,2.95-0.4c-0.61-5.92-2.18-11.78-1.72-17.77
				c0.15-1.93-2.83-1.9-3,0c-0.28,3.09-1.06,6.13-1.21,9.24c-0.14,2.68,0.15,5.82,1.66,8.12c0.86,1.32,2.89,1.3,3.35-0.36
				c0.34-1.23-0.45-2.87-0.88-4.01c-0.95-2.52-2.27-5.03-2.35-7.77C156.68,58.51,153.68,58.51,153.74,60.44L153.74,60.44z"/>
		</g>
	</g>
	<g>
		<g>
			<path fill="#FCFCFC" d="M153.66,70.41c0.11,0.11,0.21,0.22,0.3,0.34c-0.08-0.1-0.16-0.2-0.23-0.3c0.07,0.1,0.13,0.2,0.18,0.31
				c-0.05-0.12-0.1-0.24-0.15-0.36c0.03,0.08,0.06,0.16,0.07,0.25c-0.02-0.13-0.04-0.27-0.05-0.4c0.01,0.06,0.01,0.11,0,0.17
				c0.02-0.13,0.04-0.27,0.05-0.4c-0.01,0.07-0.03,0.13-0.05,0.19c0.05-0.12,0.1-0.24,0.15-0.36c-0.03,0.07-0.07,0.13-0.12,0.2
				c0.08-0.1,0.16-0.2,0.23-0.3c-0.07,0.08-0.15,0.15-0.23,0.22c0.1-0.08,0.2-0.16,0.3-0.23c-0.12,0.09-0.25,0.17-0.38,0.25
				c0.75,0.43,1.5,0.86,2.26,1.3c0-0.23,0-0.45,0-0.68c0-0.37-0.16-0.81-0.44-1.06c-0.25-0.23-0.53-0.37-0.86-0.41
				c-0.32-0.04-0.68,0-0.96,0.18c-0.31,0.2-0.63,0.52-0.69,0.9c-0.02,0.16-0.05,0.31-0.07,0.47c0.98,0.13,1.96,0.27,2.95,0.4
				c0-0.45,0.01-0.91,0.01-1.36c0-0.37-0.17-0.81-0.44-1.06c-0.25-0.23-0.53-0.37-0.86-0.41c-0.32-0.04-0.68,0-0.96,0.18
				c-0.33,0.21-0.59,0.51-0.69,0.9c-0.01,0.05-0.03,0.1-0.04,0.16c-0.09,0.33-0.05,0.67,0.08,0.98c0.12,0.29,0.33,0.57,0.61,0.72
				c0.58,0.31,1.34,0.26,1.82-0.23c0.44-0.45,0.87-0.91,1.31-1.36c0.27-0.28,0.44-0.67,0.44-1.06c0-0.37-0.16-0.81-0.44-1.06
				c-0.29-0.26-0.66-0.46-1.06-0.44c-0.39,0.02-0.78,0.15-1.06,0.44c-0.44,0.45-0.87,0.91-1.31,1.36c0.84,0.49,1.67,0.97,2.51,1.46
				c0.01-0.05,0.03-0.1,0.04-0.16c-0.98-0.13-1.96-0.27-2.95-0.4c0,0.45-0.01,0.91-0.01,1.36c0,0.37,0.17,0.81,0.44,1.06
				c0.25,0.23,0.53,0.37,0.86,0.41c0.32,0.04,0.68,0,0.96-0.18c0.31-0.2,0.63-0.52,0.69-0.9c0.02-0.16,0.05-0.31,0.07-0.47
				c-0.98-0.13-1.96-0.27-2.95-0.4c0,0.23,0,0.45,0,0.68c0,0.53,0.29,1.03,0.74,1.3c0.46,0.27,1.05,0.27,1.51,0
				c0.28-0.17,0.56-0.36,0.8-0.58c0.16-0.15,0.3-0.33,0.41-0.51c0.09-0.14,0.15-0.31,0.2-0.46c0.02-0.06,0.04-0.11,0.05-0.17
				c0.07-0.39,0.07-0.67-0.01-1.05c-0.04-0.22-0.15-0.44-0.26-0.64c-0.17-0.32-0.42-0.6-0.68-0.85c-0.27-0.27-0.68-0.44-1.06-0.44
				c-0.37,0-0.81,0.16-1.06,0.44c-0.26,0.29-0.46,0.66-0.44,1.06C153.24,69.75,153.37,70.12,153.66,70.41L153.66,70.41z"/>
		</g>
	</g>
	<g>
		<g>
			<path fill="#FCFCFC" d="M147.3,72c1.93,0,1.93-3,0-3C145.37,69,145.36,72,147.3,72L147.3,72z"/>
		</g>
	</g>
	<g>
		<g>
			<path fill="#FCFCFC" d="M145.72,69.57c-0.03,0.75-0.05,1.49-0.08,2.24c-0.01,0.38,0.18,0.8,0.44,1.06
				c0.26,0.26,0.69,0.46,1.06,0.44c0.39-0.02,0.79-0.14,1.06-0.44c0.27-0.3,0.42-0.65,0.44-1.06c0.03-0.75,0.05-1.49,0.08-2.24
				c0.01-0.38-0.18-0.8-0.44-1.06c-0.26-0.26-0.69-0.46-1.06-0.44c-0.39,0.02-0.79,0.14-1.06,0.44
				C145.89,68.8,145.74,69.15,145.72,69.57L145.72,69.57z"/>
		</g>
	</g>
	<g>
		<g>
			<path fill="#FCFCFC" d="M140.5,64.5c1.93,0,1.93-3,0-3C138.57,61.5,138.57,64.5,140.5,64.5L140.5,64.5z"/>
		</g>
	</g>
	<g>
		<g>
			<path fill="#FCFCFC" d="M152.66,70.52c0.04,0.05,0.07,0.11,0.1,0.17c-0.05-0.12-0.1-0.24-0.15-0.36
				c0.03,0.07,0.05,0.14,0.06,0.21c-0.02-0.13-0.04-0.27-0.05-0.4c0.01,0.07,0.01,0.15,0,0.22c0.02-0.13,0.04-0.27,0.05-0.4
				c-0.01,0.07-0.03,0.14-0.06,0.2c0.05-0.12,0.1-0.24,0.15-0.36c-0.03,0.07-0.07,0.13-0.11,0.19c0.08-0.1,0.16-0.2,0.23-0.3
				c-0.04,0.05-0.09,0.1-0.14,0.14c0.1-0.08,0.2-0.16,0.3-0.23c-0.05,0.04-0.11,0.08-0.17,0.1c0.73,0.3,1.47,0.6,2.2,0.9
				c0-0.01,0-0.01,0-0.02c0.02,0.13,0.04,0.27,0.05,0.4c0-0.03,0-0.05,0-0.08c-0.02,0.13-0.04,0.27-0.05,0.4
				c0.01-0.03,0.01-0.06,0.03-0.09c-0.05,0.12-0.1,0.24-0.15,0.36c0.01-0.03,0.03-0.05,0.04-0.07c-0.08,0.1-0.16,0.2-0.23,0.3
				c0.02-0.03,0.04-0.05,0.07-0.07c-0.1,0.08-0.2,0.16-0.3,0.23c0.03-0.02,0.05-0.04,0.08-0.05c-0.12,0.05-0.24,0.1-0.36,0.15
				c0.03-0.01,0.05-0.02,0.08-0.02c-0.13,0.02-0.27,0.04-0.4,0.05c0.01,0,0.01,0,0.02,0c0.21,0.01,0.4-0.04,0.58-0.13
				c0.19-0.06,0.35-0.16,0.48-0.31c0.15-0.14,0.25-0.3,0.31-0.48c0.09-0.18,0.14-0.37,0.13-0.58c-0.02-0.13-0.04-0.27-0.05-0.4
				c-0.07-0.25-0.2-0.47-0.39-0.66c-0.1-0.08-0.2-0.16-0.3-0.23c-0.23-0.14-0.49-0.2-0.76-0.2c-0.13,0.01-0.3,0.03-0.43,0.06
				c-0.01,0-0.02,0-0.03,0.01c-0.15,0.04-0.29,0.11-0.43,0.18c-0.01,0.01-0.02,0.01-0.03,0.02c-0.1,0.07-0.23,0.17-0.32,0.25
				c-0.02,0.02-0.04,0.04-0.06,0.07c-0.08,0.1-0.18,0.21-0.25,0.32c-0.01,0.01-0.01,0.02-0.02,0.04c-0.07,0.13-0.13,0.27-0.18,0.42
				c0,0.02-0.01,0.03-0.01,0.05c-0.02,0.13-0.04,0.27-0.05,0.4c0,0.01,0,0.02,0,0.02c0,0.16,0.03,0.32,0.06,0.47
				c0.07,0.25,0.2,0.47,0.39,0.66c0.14,0.15,0.3,0.25,0.48,0.31c0.18,0.09,0.37,0.14,0.58,0.13c0.27,0,0.52-0.07,0.76-0.2
				c0.06-0.03,0.11-0.06,0.17-0.1c0.13-0.1,0.31-0.22,0.43-0.35c0.26-0.3,0.43-0.57,0.55-0.96c0.01-0.03,0.02-0.06,0.02-0.09
				c0.03-0.16,0.05-0.32,0.06-0.48c0-0.04,0-0.07,0-0.11c-0.01-0.16-0.04-0.32-0.06-0.48c-0.01-0.07-0.03-0.13-0.05-0.19
				c-0.07-0.17-0.14-0.38-0.25-0.53c-0.09-0.17-0.22-0.32-0.39-0.42c-0.14-0.13-0.31-0.22-0.51-0.27c-0.2-0.06-0.4-0.07-0.6-0.03
				c-0.2,0.01-0.39,0.07-0.56,0.18c-0.1,0.08-0.2,0.16-0.3,0.23c-0.19,0.19-0.31,0.41-0.39,0.66c-0.02,0.13-0.04,0.27-0.05,0.4
				C152.45,70.03,152.52,70.28,152.66,70.52L152.66,70.52z"/>
		</g>
	</g>
	<g>
		<g>
			<path fill="#FCFCFC" d="M158.68,70.09c-0.78-0.84-1.55-1.68-2.33-2.52c-0.25-0.28-0.69-0.44-1.06-0.44
				c-0.37,0-0.81,0.16-1.06,0.44c-0.26,0.29-0.46,0.66-0.44,1.06c0.02,0.41,0.16,0.76,0.44,1.06c0.78,0.84,1.55,1.68,2.33,2.52
				c0.25,0.28,0.69,0.44,1.06,0.44c0.37,0,0.81-0.16,1.06-0.44c0.26-0.29,0.46-0.66,0.44-1.06
				C159.1,70.74,158.95,70.39,158.68,70.09L158.68,70.09z"/>
		</g>
	</g>
	<path fill="none" stroke="#FCFCFC" stroke-miterlimit="10" d="M149.49,56.72c0.5,0.64,1.2,1.09,1.85,1.59
		c1.29,0.99,2.43,2.19,3.35,3.53c0.21,0.3,0.41,0.62,0.48,0.98c0.12,0.62-0.15,1.24-0.42,1.81"/>
	<path fill="none" stroke="#FCFCFC" stroke-miterlimit="10" d="M101.35,71.31c0.14,1.52,1.66,2.65,3,3.68
		c1.4,1.08,2.72,2.24,3.94,3.47c1,1.01,2,2.26,1.64,3.54"/>
	<path fill="none" stroke="#FCFCFC" stroke-miterlimit="10" d="M100.05,80.37c0.33,0.62,0.93,1.06,1.52,1.49
		c0.99,0.71,1.97,1.43,2.96,2.14c1.09,0.79,2.21,1.6,3.01,2.66c1.02,1.34,1.47,2.99,2.47,4.35"/>
	<path fill="none" stroke="#FCFCFC" stroke-miterlimit="10" d="M100.36,89.38c-0.27,0.9-0.12,1.91,0.41,2.68
		c0.45,0.66,1.13,1.12,1.78,1.58c2.55,1.79,5.05,3.77,6.75,6.36c0.31,0.47,0.59,0.96,0.67,1.51c0.08,0.55-0.1,1.16-0.55,1.48"/>
	<path fill="#FFFFFF" stroke="#000000" stroke-miterlimit="10" d="M44.74,101.46c-6.43,0-6.45,10,0,10
		C51.18,111.46,51.19,101.46,44.74,101.46z"/>
	<path fill="#FFFFFF" stroke="#000000" stroke-miterlimit="10" d="M79.09,101.25c-6.43,0-6.45,10,0,10
		C85.52,111.25,85.53,101.25,79.09,101.25z"/>
	<g>
		<g>
			<path d="M45.3,96.97c1.85,2.83,3.23,5.91,4.06,9.2c0.6,2.4,1.88,7.01-0.97,8.48c-2.94,1.52-5.82-1.21-7.2-3.56
				c-1.8-3.06-2.91-6.6-3.74-10.03c-0.96,0.27-1.93,0.53-2.89,0.8c1.09,3.01,0.46,6.29,1.31,9.35c0.84,3.01,2.99,5.23,6.16,5.62
				c5.81,0.71,11.12-4.14,11.58-9.82c0.26-3.23-1.06-6.53-3.41-8.75c-1.4-1.32-3.53,0.79-2.12,2.12c2.02,1.9,3.03,4.82,2.38,7.55
				c-0.6,2.53-2.56,4.68-5.01,5.54c-2.71,0.95-5.58,0.29-6.56-2.63c-1.06-3.17-0.29-6.62-1.45-9.79c-0.65-1.79-3.35-1.11-2.89,0.8
				c0.81,3.32,1.92,6.63,3.47,9.69c1.4,2.76,3.54,5.32,6.6,6.23c2.85,0.84,6.28-0.2,7.68-2.96c1.43-2.82,0.71-6.34,0-9.27
				c-0.87-3.58-2.38-7.01-4.4-10.09C46.84,93.85,44.24,95.35,45.3,96.97L45.3,96.97z"/>
		</g>
	</g>
	<g>
		<g>
			<path d="M49.78,99.56c-1.81-1.72-4.17-2.94-6.71-2.94c-2.48,0-4.9,1.17-6.27,3.26c-1.39,2.12-1.5,4.91-1.06,7.34
				c0.44,2.43,1.65,4.69,3.34,6.49c1.33,1.41,3.44-0.72,2.12-2.12c-1.22-1.29-2.05-2.87-2.45-4.59c-0.39-1.65-0.43-3.65,0.39-5.18
				c0.75-1.39,2.25-2.16,3.81-2.18c1.79-0.03,3.43,0.86,4.7,2.06C49.06,103.01,51.18,100.89,49.78,99.56L49.78,99.56z"/>
		</g>
	</g>
	<g>
		<g>
			<path d="M38.92,112.45c1.47,2.31,4.37,3.16,6.95,2.39c2.68-0.79,4.57-2.91,6.06-5.18c0.44-0.68,0.14-1.66-0.54-2.05
				c-0.73-0.43-1.61-0.14-2.05,0.54c-0.55,0.84-1.05,1.53-1.77,2.23c-0.62,0.61-1.43,1.19-2.17,1.46c-0.22,0.08-0.44,0.14-0.66,0.19
				c-0.28,0.06-0.36,0.08-0.53,0.08c-0.22,0-0.43,0.01-0.65,0c-0.09,0-0.22-0.03-0.06,0c-0.13-0.02-0.25-0.05-0.38-0.08
				c-0.49-0.13-0.54-0.17-0.98-0.44c-0.05-0.03-0.19-0.14-0.06-0.04c-0.08-0.06-0.15-0.13-0.23-0.2c0,0-0.26-0.28-0.19-0.19
				c0.07,0.08-0.15-0.22-0.15-0.22c-0.43-0.68-1.33-0.96-2.05-0.54C38.78,110.79,38.48,111.76,38.92,112.45L38.92,112.45z"/>
		</g>
	</g>
	<g>
		<g>
			<path d="M44.05,111.56c-3.01,0.04-4.07-3.3-3.9-5.78c0.18-2.69,1.6-5.16,3.64-6.88c0.62-0.52,0.54-1.58,0-2.12
				c-0.61-0.61-1.5-0.52-2.12,0c-2.83,2.38-4.57,6.06-4.54,9.77c0.03,3.94,2.6,8.07,6.93,8.01
				C45.97,114.53,45.98,111.53,44.05,111.56L44.05,111.56z"/>
		</g>
	</g>
	<g>
		<g>
			<path d="M39.28,102.75c1.05,0.1,2.03-0.32,2.96-0.76c0.68-0.32,1.3-0.58,2.16-0.71c0.11-0.02,0.11-0.02,0,0
				c0.11-0.01,0.21-0.02,0.32-0.03c0.21-0.01,0.43-0.02,0.64-0.02c0.21,0,0.43,0.02,0.64,0.03c0.19,0.02,0.21,0.02,0.08,0.01
				c0.11,0.02,0.21,0.03,0.32,0.06c0.91,0.18,1.43,0.39,2.16,0.83c0.69,0.42,1.65,0.15,2.05-0.54c0.42-0.71,0.16-1.63-0.54-2.05
				c-1.65-1-3.66-1.49-5.59-1.3c-1.06,0.1-2.02,0.35-2.99,0.78c-0.2,0.09-0.41,0.19-0.61,0.28c-0.1,0.05-0.2,0.1-0.31,0.14
				c-0.02,0.01-0.24,0.11-0.1,0.05c-0.23,0.1-0.46,0.17-0.7,0.23c-0.24,0.06,0.17,0-0.08,0.01c-0.14,0.01-0.27,0-0.41-0.02
				c-0.78-0.07-1.53,0.74-1.5,1.5C37.82,102.13,38.44,102.67,39.28,102.75L39.28,102.75z"/>
		</g>
	</g>
	<g>
		<g>
			<path d="M73.32,98.37c-1.88,3.73-3.86,8.02-2.34,12.24c1.46,4.05,5.67,5.95,9.78,5.07c3.56-0.76,6.71-3.68,7.44-7.28
				c0.75-3.7-0.67-7.65-3.71-9.92c-3.55-2.65-8.62-2.25-11.98,0.47c-0.63,0.51-0.53,1.59,0,2.12c0.62,0.62,1.49,0.51,2.12,0
				c2-1.62,5.08-1.86,7.34-0.65c2.35,1.26,3.61,3.9,3.43,6.52c-0.17,2.53-2.05,4.71-4.4,5.56c-2.58,0.93-5.84,0.26-7.02-2.44
				c-1.5-3.41,0.42-7.14,1.94-10.16C76.78,98.16,74.19,96.64,73.32,98.37L73.32,98.37z"/>
		</g>
	</g>
	<g>
		<g>
			<path d="M70.71,112.75c2.44,3.58,6.97,5.37,11.21,4.39c2.34-0.54,4.57-2.02,5.47-4.32c0.84-2.16,0.43-4.82,0.13-7.06
				c-0.34-2.48-1.12-5-3.07-6.69c-0.61-0.53-1.52-0.6-2.12,0c-0.54,0.54-0.61,1.59,0,2.12c1.58,1.37,2.08,3.44,2.3,5.44
				c0.23,2.11,0.8,4.97-1.06,6.49c-3.06,2.5-8.14,1.2-10.26-1.9c-0.46-0.67-1.32-0.97-2.05-0.54
				C70.59,111.08,70.25,112.08,70.71,112.75L70.71,112.75z"/>
		</g>
	</g>
	<g>
		<g>
			<path d="M75.28,101.7c2.26-0.51,4.98-0.95,6.86,0.65c1.62,1.37,2.18,3.62,1.35,5.61c-0.81,1.95-2.77,3.1-4.79,3.09
				c-2-0.02-3.87-1.33-4.64-3.24c-0.8-1.99-0.12-4.62,1.74-5.95c-0.61-0.79-1.21-1.57-1.82-2.36c-1.56,1.54-2.68,3.47-3.23,5.6
				c-0.48,1.87,2.41,2.67,2.89,0.8c0.43-1.64,1.25-3.08,2.46-4.27c0.53-0.52,0.57-1.4,0.12-1.97c-0.43-0.54-1.32-0.83-1.94-0.39
				c-2.67,1.92-4.07,5.2-3.38,8.46c0.63,2.99,3.22,5.6,6.24,6.17c3.25,0.61,6.63-0.73,8.45-3.52c1.84-2.82,1.64-6.55-0.43-9.18
				c-1.1-1.39-2.67-2.39-4.41-2.75c-2.09-0.43-4.21-0.09-6.27,0.37c-0.79,0.18-1.25,1.09-1.05,1.85
				C73.66,101.46,74.49,101.88,75.28,101.7L75.28,101.7z"/>
		</g>
	</g>
	<path stroke="#000000" stroke-miterlimit="10" d="M67.45,96.57c-0.38-0.99-0.75-1.97-1.13-2.96c1.49-0.5,3.1-0.61,4.65-0.33"/>
	<path stroke="#000000" stroke-miterlimit="10" d="M73.86,92.48c0.18-1.04,0.37-2.08,0.55-3.12c1.53,0.34,2.98,1.07,4.16,2.11"/>
	<path stroke="#000000" stroke-miterlimit="10" d="M81.68,91.66c0.58-0.88,1.16-1.77,1.73-2.65c1.28,0.91,2.32,2.15,3,3.57"/>
	<path stroke="#000000" stroke-miterlimit="10" d="M63.98,102.56c-0.58-0.88-1.17-1.76-1.75-2.64c1.34-0.81,2.89-1.28,4.46-1.34"/>
	<path fill="none" stroke="#000000" stroke-miterlimit="10" d="M-12.5,157.5"/>
	<g>
		<g>
			<path fill="#FFFFFF" d="M-11.36,152.91c0.22,3.49,2.04,6.67,4.93,8.63c0.65,0.44,1.69,0.15,2.05-0.54
				c0.4-0.76,0.16-1.58-0.54-2.05c-0.08-0.05-0.15-0.11-0.23-0.16c-0.03-0.02-0.24-0.17-0.07-0.05c0.18,0.13-0.08-0.06-0.11-0.09
				c-0.06-0.05-0.11-0.1-0.17-0.14c-0.27-0.23-0.52-0.48-0.76-0.74c-0.11-0.12-0.22-0.25-0.33-0.38c-0.03-0.03-0.23-0.29-0.09-0.11
				c0.12,0.16-0.03-0.04-0.05-0.07c-0.21-0.29-0.4-0.59-0.58-0.9c-0.15-0.27-0.39-0.6-0.45-0.9c0.02,0.1,0.09,0.22,0.02,0.05
				c-0.03-0.09-0.07-0.17-0.1-0.26c-0.06-0.16-0.11-0.32-0.16-0.48c-0.1-0.34-0.19-0.68-0.26-1.03c-0.01-0.07-0.03-0.15-0.04-0.22
				c-0.05-0.29,0.05-0.07,0,0.01c0.05-0.08-0.04-0.45-0.05-0.56c-0.05-0.78-0.65-1.54-1.5-1.5
				C-10.63,151.44-11.41,152.07-11.36,152.91L-11.36,152.91z"/>
		</g>
	</g>
	<g>
		<g>
			<path fill="#FFFFFF" d="M-3.59,154.17c1.04,3.21,2.93,6.14,5.5,8.35c0.59,0.51,1.55,0.63,2.12,0c0.52-0.56,0.64-1.58,0-2.12
				c-0.57-0.49-1.1-1.01-1.6-1.57c-0.25-0.28-0.49-0.57-0.72-0.86c0.19,0.24,0.01,0.01-0.03-0.04c-0.06-0.08-0.12-0.17-0.18-0.25
				c-0.11-0.15-0.21-0.31-0.32-0.46c-0.41-0.62-0.79-1.27-1.12-1.95c-0.08-0.17-0.16-0.34-0.24-0.51c-0.03-0.08-0.07-0.15-0.1-0.23
				c0.13,0.29,0.01,0.02-0.02-0.04c-0.15-0.37-0.28-0.74-0.4-1.11c-0.24-0.75-1.05-1.3-1.85-1.05
				C-3.28,152.56-3.84,153.37-3.59,154.17L-3.59,154.17z"/>
		</g>
	</g>
	<g>
		<g>
			<path fill="#0A0411" d="M132.98,135.22c1.93,0,1.93-3,0-3C131.05,132.22,131.04,135.22,132.98,135.22L132.98,135.22z"/>
		</g>
	</g>
	<g>
		<g>
			<path fill="#0A0411" d="M105.3,137.83c1.93,0,1.93-3,0-3C103.37,134.83,103.36,137.83,105.3,137.83L105.3,137.83z"/>
		</g>
	</g>
	<g>
		<path fill="#0A0411" d="M12.44,136c37.64-6.91,76-10.03,114.29-9.27c4.11,0.38,24.12,0.33,20.28,7.58
			c-0.59,1.03-1.83,1.09-2.68,1.27c-2,0.32-4.04,0.55-6.03,0.76c-34.84,3.42-69.8,5.27-104.48,9.93c-4.69,0.67-9.39,1.37-13.97,2.52
			c-1.49,0.43-3.26,0.8-4.42,1.75c-0.04,0.05-0.02,0.05-0.02-0.06c0-0.11-0.04-0.11,0.01-0.06c0.56,0.52,1.4,0.77,2.23,1.06
			c10.7,2.8,21.9,3.37,32.88,4.51c0,0-0.07,1-0.07,1c-9.54-0.62-19.11-1.21-28.57-2.77c-2.65-0.6-5.62-0.75-7.83-2.59
			c-2.1-2.88,3.45-4.13,5.28-4.72c4.65-1.27,9.41-2.06,14.15-2.84c31.5-4.7,63.33-7.06,94.97-10.15c5.25-0.53,11.36-1,16.13-1.86
			c-0.01,0.01-0.05,0.02-0.26,0.19c-0.18,0.16-0.28,0.34-0.23,0.27l0-0.01l0.01-0.01c0.02-0.02-0.01,0.01-0.01,0.04
			c0.01,0.02-0.02,0.07-0.02,0.13c0,0.1,0.04,0.26,0.06,0.29c0.03,0.03,0.03,0.04,0.01,0.03c-2.23-1.45-5.5-1.65-8.18-2.06
			c-15.71-1.56-31.57-0.72-47.37,0.07c-25.39,1.49-50.63,4.4-76.03,6.01C12.56,137,12.44,136,12.44,136L12.44,136z"/>
	</g>
	<g>
		<g>
			<path fill="#0A0411" d="M86.16,138.9c1.93,0,1.93-3,0-3C84.23,135.9,84.23,138.9,86.16,138.9L86.16,138.9z"/>
		</g>
	</g>
	<g>
		<g>
			<path fill="#0A0411" d="M64.02,141.81c1.93,0,1.93-3,0-3C62.09,138.81,62.09,141.81,64.02,141.81L64.02,141.81z"/>
		</g>
	</g>
	<g>
		<line fill="#FFFFFA" x1="-2" y1="172.5" x2="204" y2="172.5"/>
		<path fill="#0A0411" d="M-2,172c14.71-3.28,36.4-1.71,51.5-2.01c46.9,0.1,94.69,0.63,141.62,1.66c0,0,12.88,0.34,12.88,0.34v1
			l-12.88,0.34c-46.95,1.04-94.72,1.57-141.63,1.66c-15.09-0.3-36.71,1.28-51.5-2.01C-2,173-2,172-2,172L-2,172z"/>
	</g>
	<g>
		<path fill="#0A0411" d="M39.27,38.69c16.67-6.59,32.48-15.17,47.67-24.65c5.08-3.15,9.94-6.61,15.32-9.34c0,0-0.2,0.25-0.17,0.21
			c0,0,0.75-1.81,0.75-1.81l0.06-0.14c0.82-0.65,1.98-0.53,2.73-0.04c3.32,2.23-0.86,6.1-3.21,3.38c0,0-0.02-0.13-0.02-0.13
			l-0.34-2.28l0.99-0.15l0.34,2.28l-0.1-0.24c1.32,1.35,3.83-0.72,1.82-2.01c-0.49-0.31-1.12-0.36-1.51-0.08l0.18-0.22L103,5.3
			l0,0.01l-0.02,0.08c-4.53,4.12-9.75,7.27-14.9,10.49c-10.22,6.33-20.76,12.14-31.71,17.1c-5.48,2.47-11.06,4.73-16.75,6.65
			L39.27,38.69L39.27,38.69z"/>
	</g>
	<g>
		<path fill="#0A0411" d="M108.45,3.89c9.88,4.33,18.65,10.48,27.71,16.22c8.98,5.81,17.89,11.75,26.61,17.96
			c0,0,1.75,1.26,1.75,1.26l-2.1-0.35l-2.82-0.47l0.16-0.99l2.82,0.47l-0.35,0.92c-14.05-7.77-27.76-16.13-41.33-24.69
			c-4.49-2.9-8.9-5.94-12.98-9.49L108.45,3.89L108.45,3.89z"/>
	</g>
</g>
<g>
	<g>
		<path fill="#FFFFFF" d="M19.43-32.96c1.93,0,1.93-3,0-3C17.5-35.96,17.5-32.96,19.43-32.96L19.43-32.96z"/>
	</g>
</g>
</svg>
