<?xml version="1.0" encoding="utf-8"?>
<!-- Generator: Adobe Illustrator 27.2.0, SVG Export Plug-In . SVG Version: 6.00 Build 0)  -->
<svg version="1.1" id="Layer_1" xmlns="http://www.w3.org/2000/svg" xmlns:xlink="http://www.w3.org/1999/xlink" x="0px" y="0px"
	 viewBox="0 0 254.13 99.37" style="enable-background:new 0 0 254.13 99.37;" xml:space="preserve">
<style type="text/css">
	.st0{font-family:'LiGothicMed';}
	.st1{font-size:75.4212px;}
	.st2{stroke:#000000;stroke-miterlimit:10;}
	.st3{fill:#FCFCFC;}
	.st4{fill:none;stroke:#FCFCFC;stroke-miterlimit:10;}
	.st5{fill:#FFFFFF;stroke:#000000;stroke-miterlimit:10;}
</style>
<g>
	<text transform="matrix(1.0438 0 0 1 29.5956 77.9124)" class="st0 st1">toolUp</text>
	<path class="st2" d="M127.63,26.74c-1.08-1.46-2.32-2.73-3.69-3.73c-1.07,1.1-2.26,2.38-3.31,3.56c0,0.11,0,0.21-0.01,0.32
		l6.79-0.22c0.08,0.06,0.16,0.11,0.24,0.17C127.64,26.82,127.63,26.78,127.63,26.74z"/>
	<g>
		<g>
			<path d="M174.67,27.46c1.53-0.02,2.98-0.62,4.11-1.65c0.28-0.25,0.44-0.69,0.44-1.06c0-0.37-0.16-0.81-0.44-1.06
				c-0.29-0.26-0.66-0.46-1.06-0.44c-0.41,0.02-0.76,0.16-1.06,0.44c-0.1,0.09-0.2,0.18-0.31,0.26c0.1-0.08,0.2-0.16,0.3-0.23
				c-0.31,0.23-0.64,0.43-0.99,0.58c0.12-0.05,0.24-0.1,0.36-0.15c-0.39,0.16-0.79,0.27-1.2,0.33c0.13-0.02,0.27-0.04,0.4-0.05
				c-0.18,0.02-0.36,0.04-0.55,0.04c-0.39,0.01-0.79,0.16-1.06,0.44c-0.26,0.26-0.46,0.69-0.44,1.06c0.02,0.39,0.14,0.79,0.44,1.06
				C173.9,27.28,174.27,27.46,174.67,27.46L174.67,27.46z"/>
		</g>
	</g>
	<g>
		<g>
			<path d="M174.6,22.09c0,1.17,0,2.34,0,3.5c0,0.17,0,0.33,0,0.5c0,0.78,0.69,1.54,1.5,1.5c0.81-0.04,1.5-0.66,1.5-1.5
				c0-1.17,0-2.34,0-3.5c0-0.17,0-0.33,0-0.5c0-0.78-0.69-1.54-1.5-1.5C175.28,20.62,174.6,21.25,174.6,22.09L174.6,22.09z"/>
		</g>
	</g>
	<g>
		<g>
			<path d="M176.3,24.84c0.83-0.01,1.66-0.02,2.49-0.03c0.39,0,0.79-0.16,1.06-0.44c0.26-0.26,0.46-0.69,0.44-1.06
				c-0.02-0.39-0.14-0.79-0.44-1.06c-0.29-0.27-0.66-0.44-1.06-0.44c-0.83,0.01-1.66,0.02-2.49,0.03c-0.39,0-0.79,0.16-1.06,0.44
				c-0.26,0.26-0.46,0.69-0.44,1.06c0.02,0.39,0.14,0.79,0.44,1.06C175.53,24.67,175.9,24.84,176.3,24.84L176.3,24.84z"/>
		</g>
	</g>
	<g>
		<g>
			<path d="M173.16,24.26c0.17,0.05,0.33,0.11,0.49,0.18c-0.12-0.05-0.24-0.1-0.36-0.15c0.45,0.19,0.87,0.44,1.26,0.74
				c-0.1-0.08-0.2-0.16-0.3-0.23c0.39,0.3,0.73,0.65,1.03,1.03c-0.08-0.1-0.16-0.2-0.23-0.3c0.08,0.1,0.15,0.2,0.22,0.31
				c0.22,0.33,0.51,0.58,0.9,0.69c0.36,0.1,0.84,0.05,1.16-0.15c0.32-0.21,0.6-0.51,0.69-0.9c0.09-0.38,0.07-0.82-0.15-1.16
				c-0.94-1.4-2.29-2.43-3.89-2.95c-0.36-0.12-0.83-0.04-1.16,0.15c-0.31,0.18-0.61,0.54-0.69,0.9
				C171.92,23.24,172.36,24.01,173.16,24.26L173.16,24.26z"/>
		</g>
	</g>
	<g>
		<g>
			<path d="M176.79,19.82c-0.05-0.07-0.11-0.13-0.16-0.2c-0.04-0.05-0.16-0.23,0-0.01c-0.09-0.13-0.18-0.25-0.26-0.38
				c-0.08-0.13-0.15-0.26-0.21-0.4c0.12,0.26,0.03,0.06,0.02,0c-0.01-0.05-0.04-0.34-0.04-0.12c0,0.26,0.03-0.21,0.02-0.24
				c0.21,0.33-0.13,0.17,0.01,0.08c0.01-0.03,0.02-0.07,0.03-0.1c-0.02,0.05-0.04,0.11-0.07,0.16c0.04-0.08,0.16-0.2-0.06,0.04
				c0.06-0.07,0.19-0.15-0.06,0.02c0.03-0.02,0.19-0.13,0.02-0.02c-0.21,0.12,0.09-0.05,0.13-0.02c0.01,0.01-0.39,0-0.06,0.02
				c0.03,0,0.23,0,0.23,0.01c0,0.01-0.29-0.06-0.11-0.02c0.08,0.02,0.15,0.03,0.23,0.05c0.13,0.03,0.26,0.07,0.39,0.11
				c0.08,0.03,0.15,0.05,0.22,0.08c0.04,0.02,0.34,0.15,0.15,0.06c-0.17-0.08,0.2,0.1,0.25,0.13c0.14,0.07,0.28,0.15,0.42,0.23
				c0.12,0.07,0.24,0.15,0.35,0.23c0.07,0.04,0.13,0.09,0.19,0.14c0.15,0.1-0.19-0.16,0.03,0.02c0.23,0.2,0.45,0.39,0.65,0.61
				c0.1,0.1,0.19,0.21,0.28,0.31c0.18,0.2,0.02,0.02-0.01-0.02c0.06,0.08,0.12,0.16,0.17,0.24c0.09,0.13,0.17,0.25,0.24,0.39
				c0.04,0.08,0.08,0.16,0.13,0.23c0.04,0.08,0.06,0.24,0,0.01c0.02,0.08,0.05,0.17,0.08,0.25c0.01,0.03,0.04,0.24,0.02,0.06
				c-0.03-0.2-0.01,0.08-0.01,0.12c0.03,0.18,0.09-0.29,0,0.01c-0.01,0.03-0.05,0.22-0.06,0.22c-0.02,0,0.14-0.25,0.04-0.1
				c-0.04,0.06-0.07,0.13-0.11,0.2c-0.03,0.04-0.18,0.23-0.05,0.08c0.12-0.14-0.01,0.01-0.03,0.03c-0.06,0.05-0.11,0.11-0.16,0.17
				c-0.04,0.04-0.12,0.13-0.18,0.15c0.04-0.03,0.08-0.06,0.12-0.1c-0.05,0.04-0.11,0.07-0.16,0.11c-0.13,0.08-0.26,0.15-0.39,0.22
				c-0.08,0.04-0.15,0.07-0.23,0.11c0.05-0.02,0.27-0.1,0-0.01c-0.32,0.12-0.65,0.22-0.98,0.32c-0.18,0.06-0.36,0.1-0.55,0.15
				c0.3-0.07,0-0.02-0.02-0.01c-0.05,0-0.09,0-0.14-0.01c0.21,0.03,0.26,0.03,0.14,0c-0.18-0.04,0.15,0.09,0.19,0.11
				c0.08,0.07,0.09,0.08,0.03,0.02c-0.08-0.08-0.05-0.05,0.09,0.1c0.1,0.18,0.14,0.46,0.09,0.66c0.05-0.18-0.01-0.02-0.04,0.07
				c0.09-0.22,0-0.01-0.04,0.05c0.15-0.21-0.13,0.1,0.02,0c0.17-0.12-0.22,0.05-0.01,0c0.1-0.02,0.2-0.06,0.31-0.09
				c0.14-0.03,0.34-0.03,0.47-0.1c-0.23,0.11-0.23,0.01-0.08,0.03c-0.19-0.02-0.4-0.09-0.53-0.23c0.54,0.57,1.58,0.59,2.12,0
				c0.56-0.61,0.58-1.52,0-2.12c-0.94-0.98-2.64-0.7-3.73-0.12c-1.24,0.66-1.84,2.19-1.1,3.45c0.33,0.56,0.96,0.96,1.59,1.1
				c0.72,0.16,1.44,0,2.13-0.21c1.06-0.33,2.08-0.73,2.93-1.46c0.88-0.76,1.44-1.96,1.33-3.13c-0.12-1.22-0.78-2.25-1.56-3.16
				c-0.65-0.75-1.47-1.39-2.34-1.86c-0.89-0.48-1.95-0.9-2.98-0.88c-1.59,0.03-2.76,1.14-2.93,2.71c-0.15,1.4,0.67,2.54,1.51,3.57
				c0.5,0.61,1.61,0.55,2.12,0C177.39,21.29,177.32,20.47,176.79,19.82L176.79,19.82z"/>
		</g>
	</g>
	<g>
		<g>
			<path d="M172.55,20.04c0.16,0.19,0.32,0.38,0.48,0.58c0.04,0.05,0.08,0.1,0.12,0.15c0.2,0.25-0.15-0.2-0.03-0.04
				c0.07,0.1,0.15,0.2,0.23,0.3c0.31,0.42,0.6,0.85,0.87,1.29c0.55,0.88,1.03,1.8,1.44,2.75c0.14,0.32,0.58,0.6,0.9,0.69
				c0.36,0.1,0.84,0.05,1.16-0.15c0.32-0.21,0.6-0.51,0.69-0.9c0.1-0.42,0.02-0.77-0.15-1.16c-0.89-2.06-2.11-3.94-3.57-5.64
				c-0.51-0.6-1.6-0.57-2.12,0C171.97,18.55,172.01,19.4,172.55,20.04L172.55,20.04z"/>
		</g>
	</g>
	<g>
		<g>
			<path class="st3" d="M173.33,16.53c0.06,2.07,0.65,4.02,1.41,5.93c0.37,0.93,0.75,1.84,1.1,2.78c0.29,0.77,0.83,1.85,0.77,2.67
				c0.07-0.25,0.14-0.5,0.2-0.76c-0.02,0.05-0.04,0.1-0.07,0.16c0.18-0.18,0.36-0.36,0.54-0.54c-0.04,0.03-0.09,0.06-0.13,0.09
				c0.25-0.07,0.5-0.14,0.76-0.2c-0.06-0.01-0.12-0.02-0.19-0.02c0.35,0.15,0.71,0.29,1.06,0.44c-0.36-0.29-0.57-1.12-0.71-1.56
				c-0.18-0.57-0.32-1.16-0.41-1.75c-0.19-1.26-0.17-2.56-0.07-3.82c0.22-2.9,0.91-5.74,1.17-8.63c-1,0-2,0-3,0
				c-0.46,5.99,1.11,11.85,1.72,17.77c0.98-0.13,1.96-0.27,2.95-0.4c-0.29-1.75-0.44-3.52-0.46-5.3c-0.01-0.87,0.01-1.74,0.06-2.6
				c0.04-0.76-0.01-1.7,0.28-2.41c-0.13,0.22-0.26,0.44-0.39,0.66c0.05-0.04,0.09-0.09,0.14-0.13c-0.22,0.13-0.44,0.26-0.66,0.39
				c0.06-0.01,0.12-0.02,0.17-0.04c-0.27,0-0.53,0-0.8,0c-0.01,0-0.02,0.01-0.03,0.01c-0.18-0.18-0.36-0.36-0.54-0.54
				c0.43,0.66,0.59,1.64,0.84,2.39c0.28,0.86,0.57,1.72,0.85,2.58c0.84-0.49,1.67-0.97,2.51-1.46c-0.88-0.89-2.02-2.41-1.93-3.73
				c-0.07,0.25-0.14,0.5-0.2,0.76c0.03-0.07,0.07-0.14,0.1-0.2c-0.18,0.18-0.36,0.36-0.54,0.54c0,0,0.01,0.01,0.01,0.01
				c-0.27,0-0.53,0-0.8,0c-0.35-0.08-0.22-0.28-0.18,0.15c0.02,0.21,0.11,0.43,0.16,0.64c0.1,0.46,0.18,0.92,0.22,1.39
				c0.08,0.94,0.05,1.87-0.07,2.8c0.98-0.13,1.96-0.27,2.95-0.4c-0.19-0.61,0.8-1.64,1.01-2.23c0.34-0.92,0.28-1.92-0.23-2.76
				c-0.84-1.39-3.38-0.48-2.74,1.16c0.47,1.21,0.95,2.43,1.42,3.64c0.84-0.49,1.67-0.97,2.51-1.46c-3.26-2.83-6.72-5.41-10.37-7.73
				c-1.03-0.65-2.17,0.22-2.26,1.3c-0.25,3.25,0.14,6.53,1.16,9.63c0.13-0.49,0.26-0.97,0.39-1.46c-0.02,0.03-0.05,0.06-0.07,0.1
				c-0.5,0.64-0.62,1.5,0,2.12c0.52,0.52,1.62,0.64,2.12,0c0.69-0.89,0.45-1.52,0.16-2.51c-0.25-0.86-0.44-1.73-0.59-2.61
				c-0.28-1.74-0.31-3.51-0.17-5.27c-0.75,0.43-1.5,0.86-2.26,1.3c3.43,2.18,6.69,4.6,9.76,7.26c1.01,0.88,3.1,0.06,2.51-1.46
				c-0.47-1.21-0.95-2.43-1.42-3.64c-0.91,0.39-1.83,0.77-2.74,1.16c0.21,0.34-0.58,1.22-0.74,1.53c-0.45,0.86-0.63,1.81-0.34,2.75
				c0.54,1.7,2.75,1.23,2.95-0.4c0.24-2,0.29-8.91-3.34-7.84c-1.82,0.54-1.42,2.63-0.91,3.97c0.52,1.38,1.31,2.6,2.35,3.64
				c1.02,1.03,2.99-0.01,2.51-1.46c-0.57-1.73-1-3.63-1.77-5.28c-0.83-1.78-3.3-1.65-3.71,0.35c-0.37,1.79-0.36,3.77-0.33,5.59
				c0.03,1.99,0.24,3.96,0.57,5.92c0.27,1.65,3.12,1.29,2.95-0.4c-0.61-5.92-2.18-11.78-1.72-17.77c0.15-1.93-2.83-1.9-3,0
				c-0.28,3.09-1.06,6.13-1.21,9.24c-0.14,2.68,0.15,5.82,1.66,8.12c0.86,1.32,2.89,1.3,3.35-0.36c0.34-1.23-0.45-2.87-0.88-4.01
				c-0.95-2.52-2.27-5.03-2.35-7.77C176.27,14.6,173.27,14.59,173.33,16.53L173.33,16.53z"/>
		</g>
	</g>
	<g>
		<g>
			<path class="st3" d="M173.25,26.49c0.11,0.11,0.21,0.22,0.3,0.34c-0.08-0.1-0.16-0.2-0.23-0.3c0.07,0.1,0.13,0.2,0.18,0.31
				c-0.05-0.12-0.1-0.24-0.15-0.36c0.03,0.08,0.06,0.16,0.07,0.25c-0.02-0.13-0.04-0.27-0.05-0.4c0.01,0.06,0.01,0.11,0,0.17
				c0.02-0.13,0.04-0.27,0.05-0.4c-0.01,0.07-0.03,0.13-0.05,0.19c0.05-0.12,0.1-0.24,0.15-0.36c-0.03,0.07-0.07,0.13-0.12,0.2
				c0.08-0.1,0.16-0.2,0.23-0.3c-0.07,0.08-0.15,0.15-0.23,0.22c0.1-0.08,0.2-0.16,0.3-0.23c-0.12,0.09-0.25,0.17-0.38,0.25
				c0.75,0.43,1.5,0.86,2.26,1.3c0-0.23,0-0.45,0-0.68c0-0.37-0.16-0.81-0.44-1.06c-0.25-0.23-0.53-0.37-0.86-0.41
				c-0.32-0.04-0.68,0-0.96,0.18c-0.31,0.2-0.63,0.52-0.69,0.9c-0.02,0.16-0.05,0.31-0.07,0.47c0.98,0.13,1.96,0.27,2.95,0.4
				c0-0.45,0.01-0.91,0.01-1.36c0-0.37-0.17-0.81-0.44-1.06c-0.25-0.23-0.53-0.37-0.86-0.41c-0.32-0.04-0.68,0-0.96,0.18
				c-0.33,0.21-0.59,0.51-0.69,0.9c-0.01,0.05-0.03,0.1-0.04,0.16c-0.09,0.33-0.05,0.67,0.08,0.98c0.12,0.29,0.33,0.57,0.61,0.72
				c0.58,0.31,1.34,0.26,1.82-0.23c0.44-0.45,0.87-0.91,1.31-1.36c0.27-0.28,0.44-0.67,0.44-1.06c0-0.37-0.16-0.81-0.44-1.06
				c-0.29-0.26-0.66-0.46-1.06-0.44c-0.39,0.02-0.78,0.15-1.06,0.44c-0.44,0.45-0.87,0.91-1.31,1.36c0.84,0.49,1.67,0.97,2.51,1.46
				c0.01-0.05,0.03-0.1,0.04-0.16c-0.98-0.13-1.96-0.27-2.95-0.4c0,0.45-0.01,0.91-0.01,1.36c0,0.37,0.17,0.81,0.44,1.06
				c0.25,0.23,0.53,0.37,0.86,0.41c0.32,0.04,0.68,0,0.96-0.18c0.31-0.2,0.63-0.52,0.69-0.9c0.02-0.16,0.05-0.31,0.07-0.47
				c-0.98-0.13-1.96-0.27-2.95-0.4c0,0.23,0,0.45,0,0.68c0,0.53,0.29,1.03,0.74,1.3c0.46,0.27,1.05,0.27,1.51,0
				c0.28-0.17,0.56-0.36,0.8-0.58c0.16-0.15,0.3-0.33,0.41-0.51c0.09-0.14,0.15-0.31,0.2-0.46c0.02-0.06,0.04-0.11,0.05-0.17
				c0.07-0.39,0.07-0.67-0.01-1.05c-0.04-0.22-0.15-0.44-0.26-0.64c-0.17-0.32-0.42-0.6-0.67-0.85c-0.27-0.27-0.68-0.44-1.06-0.44
				c-0.37,0-0.81,0.16-1.06,0.44c-0.26,0.29-0.46,0.66-0.44,1.06C172.83,25.83,172.97,26.2,173.25,26.49L173.25,26.49z"/>
		</g>
	</g>
	<g>
		<g>
			<path class="st3" d="M166.89,28.09c1.93,0,1.93-3,0-3C164.96,25.09,164.96,28.09,166.89,28.09L166.89,28.09z"/>
		</g>
	</g>
	<g>
		<g>
			<path class="st3" d="M165.32,25.65c-0.03,0.75-0.05,1.49-0.08,2.24c-0.01,0.38,0.18,0.8,0.44,1.06c0.26,0.26,0.69,0.46,1.06,0.44
				c0.39-0.02,0.79-0.14,1.06-0.44c0.27-0.3,0.42-0.65,0.44-1.06c0.03-0.75,0.05-1.49,0.08-2.24c0.01-0.38-0.18-0.8-0.44-1.06
				c-0.26-0.26-0.69-0.46-1.06-0.44c-0.39,0.02-0.79,0.14-1.06,0.44C165.48,24.89,165.33,25.24,165.32,25.65L165.32,25.65z"/>
		</g>
	</g>
	<g>
		<g>
			<path class="st3" d="M160.1,20.59c1.93,0,1.93-3,0-3C158.16,17.59,158.16,20.59,160.1,20.59L160.1,20.59z"/>
		</g>
	</g>
	<g>
		<g>
			<path class="st3" d="M172.25,26.6c0.04,0.05,0.07,0.11,0.1,0.17c-0.05-0.12-0.1-0.24-0.15-0.36c0.03,0.07,0.05,0.14,0.06,0.21
				c-0.02-0.13-0.04-0.27-0.05-0.4c0.01,0.07,0.01,0.15,0,0.22c0.02-0.13,0.04-0.27,0.05-0.4c-0.01,0.07-0.03,0.14-0.06,0.2
				c0.05-0.12,0.1-0.24,0.15-0.36c-0.03,0.07-0.07,0.13-0.11,0.19c0.08-0.1,0.16-0.2,0.23-0.3c-0.04,0.05-0.09,0.1-0.14,0.14
				c0.1-0.08,0.2-0.16,0.3-0.23c-0.05,0.04-0.11,0.08-0.17,0.1c0.73,0.3,1.47,0.6,2.2,0.9c0-0.01,0-0.01,0-0.02
				c0.02,0.13,0.04,0.27,0.05,0.4c0-0.03,0-0.05,0-0.08c-0.02,0.13-0.04,0.27-0.05,0.4c0.01-0.03,0.01-0.06,0.03-0.09
				c-0.05,0.12-0.1,0.24-0.15,0.36c0.01-0.03,0.03-0.05,0.04-0.07c-0.08,0.1-0.16,0.2-0.23,0.3c0.02-0.03,0.04-0.05,0.07-0.07
				c-0.1,0.08-0.2,0.16-0.3,0.23c0.03-0.02,0.05-0.04,0.08-0.05c-0.12,0.05-0.24,0.1-0.36,0.15c0.03-0.01,0.05-0.02,0.08-0.02
				c-0.13,0.02-0.27,0.04-0.4,0.05c0.01,0,0.01,0,0.02,0c0.21,0.01,0.4-0.04,0.58-0.13c0.19-0.06,0.35-0.16,0.48-0.31
				c0.15-0.14,0.25-0.3,0.31-0.48c0.09-0.18,0.14-0.37,0.13-0.58c-0.02-0.13-0.04-0.27-0.05-0.4c-0.07-0.25-0.2-0.47-0.39-0.66
				c-0.1-0.08-0.2-0.16-0.3-0.23c-0.23-0.14-0.49-0.2-0.76-0.2c-0.13,0.01-0.3,0.03-0.43,0.06c-0.01,0-0.02,0-0.03,0.01
				c-0.15,0.04-0.29,0.11-0.43,0.18c-0.01,0.01-0.02,0.01-0.03,0.02c-0.1,0.07-0.23,0.17-0.32,0.25c-0.02,0.02-0.04,0.04-0.06,0.07
				c-0.08,0.1-0.18,0.21-0.25,0.32c-0.01,0.01-0.01,0.02-0.02,0.04c-0.07,0.13-0.13,0.27-0.18,0.42c0,0.02-0.01,0.03-0.01,0.05
				c-0.02,0.13-0.04,0.27-0.05,0.4c0,0.01,0,0.02,0,0.02c0,0.16,0.03,0.32,0.06,0.47c0.07,0.25,0.2,0.47,0.39,0.66
				c0.14,0.15,0.3,0.25,0.48,0.31c0.18,0.09,0.37,0.14,0.58,0.13c0.27,0,0.52-0.07,0.76-0.2c0.06-0.03,0.11-0.06,0.17-0.1
				c0.13-0.1,0.31-0.22,0.43-0.35c0.26-0.3,0.43-0.57,0.55-0.96c0.01-0.03,0.02-0.06,0.02-0.09c0.03-0.16,0.05-0.32,0.06-0.48
				c0-0.04,0-0.07,0-0.11c-0.01-0.16-0.04-0.32-0.06-0.48c-0.01-0.07-0.03-0.13-0.05-0.19c-0.07-0.17-0.14-0.38-0.25-0.53
				c-0.09-0.17-0.22-0.32-0.39-0.42c-0.14-0.13-0.31-0.22-0.51-0.27c-0.2-0.06-0.4-0.07-0.6-0.03c-0.2,0.01-0.39,0.07-0.56,0.18
				c-0.1,0.08-0.2,0.16-0.3,0.23c-0.19,0.19-0.31,0.41-0.39,0.66c-0.02,0.13-0.04,0.27-0.05,0.4
				C172.05,26.12,172.12,26.37,172.25,26.6L172.25,26.6z"/>
		</g>
	</g>
	<g>
		<g>
			<path class="st3" d="M178.27,26.17c-0.78-0.84-1.55-1.68-2.33-2.52c-0.25-0.28-0.69-0.44-1.06-0.44c-0.37,0-0.81,0.16-1.06,0.44
				c-0.26,0.29-0.46,0.66-0.44,1.06c0.02,0.41,0.16,0.76,0.44,1.06c0.78,0.84,1.55,1.68,2.33,2.52c0.25,0.28,0.69,0.44,1.06,0.44
				c0.37,0,0.81-0.16,1.06-0.44c0.26-0.29,0.46-0.66,0.44-1.06C178.69,26.83,178.55,26.48,178.27,26.17L178.27,26.17z"/>
		</g>
	</g>
	<path class="st4" d="M169.09,12.81c0.5,0.64,1.2,1.09,1.85,1.59c1.29,0.99,2.43,2.19,3.35,3.53c0.21,0.3,0.41,0.62,0.48,0.98
		c0.12,0.62-0.15,1.24-0.42,1.81"/>
	<path class="st4" d="M120.95,27.4c0.14,1.52,1.66,2.65,3,3.68c1.4,1.08,2.72,2.24,3.94,3.47c1,1.01,2,2.26,1.64,3.54"/>
	<path class="st4" d="M119.64,36.45c0.33,0.62,0.93,1.06,1.52,1.49c0.99,0.71,1.97,1.43,2.96,2.14c1.09,0.79,2.21,1.6,3.01,2.66
		c1.02,1.34,1.47,2.99,2.47,4.35"/>
	<path class="st4" d="M119.96,45.46c-0.27,0.9-0.12,1.91,0.41,2.68c0.45,0.66,1.13,1.12,1.78,1.58c2.55,1.79,5.05,3.77,6.75,6.36
		c0.31,0.47,0.59,0.96,0.67,1.51c0.08,0.55-0.1,1.16-0.55,1.48"/>
	<path class="st5" d="M64.34,57.54c-6.43,0-6.45,10,0,10C70.77,67.54,70.78,57.54,64.34,57.54z"/>
	<path class="st5" d="M98.68,57.34c-6.43,0-6.45,10,0,10C105.12,67.34,105.13,57.34,98.68,57.34z"/>
	<g>
		<g>
			<path d="M64.9,53.06c1.85,2.83,3.23,5.91,4.06,9.2c0.6,2.4,1.88,7.01-0.97,8.48c-2.94,1.52-5.82-1.21-7.2-3.56
				c-1.8-3.06-2.91-6.6-3.74-10.03c-0.96,0.27-1.93,0.53-2.89,0.8c1.09,3.01,0.46,6.29,1.31,9.35c0.84,3.01,2.99,5.23,6.16,5.62
				c5.81,0.71,11.12-4.14,11.58-9.82c0.26-3.23-1.06-6.53-3.41-8.75c-1.4-1.32-3.53,0.79-2.12,2.12c2.02,1.9,3.03,4.82,2.38,7.55
				c-0.6,2.53-2.56,4.68-5.01,5.54c-2.71,0.95-5.58,0.29-6.56-2.63c-1.06-3.17-0.29-6.62-1.45-9.79c-0.65-1.79-3.35-1.11-2.89,0.8
				c0.81,3.32,1.92,6.63,3.47,9.69c1.4,2.76,3.54,5.32,6.6,6.23c2.85,0.84,6.28-0.2,7.68-2.96c1.43-2.82,0.71-6.34,0-9.27
				c-0.87-3.58-2.38-7.01-4.4-10.09C66.43,49.94,63.84,51.44,64.9,53.06L64.9,53.06z"/>
		</g>
	</g>
	<g>
		<g>
			<path d="M69.38,55.64c-1.81-1.72-4.17-2.94-6.71-2.94c-2.48,0-4.9,1.17-6.27,3.26c-1.39,2.12-1.5,4.91-1.06,7.34
				c0.44,2.43,1.65,4.69,3.34,6.49c1.33,1.41,3.44-0.72,2.12-2.12c-1.22-1.29-2.05-2.87-2.45-4.59c-0.39-1.65-0.43-3.65,0.39-5.18
				c0.75-1.39,2.25-2.16,3.81-2.18c1.79-0.03,3.43,0.86,4.7,2.06C68.65,59.1,70.78,56.98,69.38,55.64L69.38,55.64z"/>
		</g>
	</g>
	<g>
		<g>
			<path d="M58.51,68.53c1.47,2.31,4.37,3.16,6.95,2.39c2.68-0.79,4.57-2.91,6.06-5.18c0.44-0.68,0.14-1.66-0.54-2.05
				c-0.73-0.43-1.61-0.14-2.05,0.54c-0.55,0.84-1.05,1.53-1.77,2.23c-0.62,0.61-1.43,1.19-2.17,1.46c-0.22,0.08-0.44,0.14-0.66,0.19
				c-0.28,0.06-0.36,0.08-0.53,0.08c-0.22,0-0.43,0.01-0.65,0c-0.09,0-0.22-0.03-0.06,0c-0.13-0.02-0.25-0.05-0.38-0.08
				c-0.49-0.13-0.54-0.17-0.98-0.44c-0.05-0.03-0.19-0.14-0.06-0.04c-0.08-0.06-0.15-0.13-0.23-0.2c0,0-0.26-0.28-0.19-0.19
				c0.07,0.08-0.15-0.22-0.15-0.22c-0.43-0.68-1.33-0.96-2.05-0.54C58.37,66.88,58.08,67.85,58.51,68.53L58.51,68.53z"/>
		</g>
	</g>
	<g>
		<g>
			<path d="M63.64,67.64c-3.01,0.04-4.07-3.3-3.9-5.78c0.18-2.69,1.6-5.16,3.64-6.88c0.62-0.52,0.54-1.58,0-2.12
				c-0.61-0.61-1.5-0.52-2.12,0c-2.83,2.38-4.57,6.06-4.54,9.77c0.03,3.94,2.6,8.07,6.93,8.01C65.57,70.62,65.58,67.62,63.64,67.64
				L63.64,67.64z"/>
		</g>
	</g>
	<g>
		<g>
			<path d="M58.87,58.84c1.05,0.1,2.03-0.32,2.96-0.76c0.68-0.32,1.3-0.58,2.16-0.71c0.11-0.02,0.11-0.02,0,0
				c0.11-0.01,0.21-0.02,0.32-0.03c0.21-0.01,0.43-0.02,0.64-0.02c0.21,0,0.43,0.02,0.64,0.03c0.19,0.02,0.21,0.02,0.08,0.01
				c0.11,0.02,0.21,0.03,0.32,0.06c0.91,0.18,1.43,0.39,2.16,0.83c0.69,0.42,1.65,0.15,2.05-0.54c0.42-0.71,0.16-1.63-0.54-2.05
				c-1.65-1-3.66-1.49-5.59-1.3c-1.06,0.1-2.02,0.35-2.99,0.78c-0.2,0.09-0.41,0.19-0.61,0.28c-0.1,0.05-0.2,0.1-0.31,0.14
				c-0.02,0.01-0.24,0.11-0.1,0.05c-0.23,0.1-0.46,0.17-0.7,0.23c-0.24,0.06,0.17,0-0.08,0.01c-0.14,0.01-0.27,0-0.41-0.02
				c-0.78-0.07-1.53,0.74-1.5,1.5C57.41,58.21,58.03,58.76,58.87,58.84L58.87,58.84z"/>
		</g>
	</g>
	<g>
		<g>
			<path d="M92.92,54.46c-1.88,3.73-3.86,8.02-2.34,12.24c1.46,4.05,5.67,5.95,9.78,5.07c3.56-0.76,6.71-3.68,7.44-7.28
				c0.75-3.7-0.67-7.65-3.71-9.92c-3.55-2.65-8.62-2.25-11.98,0.47c-0.63,0.51-0.53,1.59,0,2.12c0.62,0.62,1.49,0.51,2.12,0
				c2-1.62,5.08-1.86,7.34-0.65c2.35,1.26,3.61,3.9,3.43,6.52c-0.17,2.53-2.05,4.71-4.4,5.56c-2.58,0.93-5.84,0.26-7.02-2.44
				c-1.5-3.41,0.42-7.14,1.94-10.16C96.37,54.25,93.79,52.73,92.92,54.46L92.92,54.46z"/>
		</g>
	</g>
	<g>
		<g>
			<path d="M90.31,68.84c2.44,3.58,6.97,5.37,11.21,4.39c2.34-0.54,4.57-2.02,5.47-4.32c0.84-2.16,0.43-4.82,0.13-7.06
				c-0.34-2.48-1.12-5-3.07-6.69c-0.61-0.53-1.52-0.6-2.12,0c-0.54,0.54-0.61,1.59,0,2.12c1.58,1.37,2.08,3.44,2.3,5.44
				c0.23,2.11,0.8,4.97-1.06,6.49c-3.06,2.5-8.14,1.2-10.26-1.9c-0.46-0.67-1.32-0.97-2.05-0.54
				C90.18,67.17,89.85,68.16,90.31,68.84L90.31,68.84z"/>
		</g>
	</g>
	<g>
		<g>
			<path d="M94.87,57.78c2.26-0.51,4.98-0.95,6.86,0.65c1.62,1.37,2.18,3.62,1.35,5.61c-0.81,1.95-2.77,3.1-4.79,3.09
				c-2-0.02-3.87-1.33-4.64-3.24c-0.8-1.99-0.12-4.62,1.74-5.95c-0.61-0.79-1.21-1.57-1.82-2.36c-1.56,1.54-2.68,3.47-3.23,5.6
				c-0.48,1.87,2.41,2.67,2.89,0.8c0.43-1.64,1.25-3.08,2.46-4.27c0.53-0.52,0.57-1.4,0.12-1.97c-0.43-0.54-1.32-0.83-1.94-0.39
				c-2.67,1.92-4.07,5.2-3.38,8.46c0.63,2.99,3.22,5.6,6.24,6.17c3.25,0.61,6.63-0.73,8.45-3.52c1.84-2.82,1.64-6.55-0.43-9.18
				c-1.1-1.39-2.67-2.39-4.41-2.75c-2.09-0.43-4.21-0.09-6.27,0.37c-0.79,0.18-1.25,1.09-1.05,1.85
				C93.25,57.55,94.08,57.96,94.87,57.78L94.87,57.78z"/>
		</g>
	</g>
	<path class="st2" d="M87.04,52.65c-0.38-0.99-0.75-1.97-1.13-2.96c1.49-0.5,3.1-0.61,4.65-0.33"/>
	<path class="st2" d="M93.46,48.57c0.18-1.04,0.37-2.08,0.55-3.12c1.53,0.34,2.98,1.07,4.16,2.11"/>
	<path class="st2" d="M101.27,47.75c0.58-0.88,1.16-1.77,1.73-2.65c1.28,0.91,2.32,2.15,3,3.57"/>
	<path class="st2" d="M83.58,58.65c-0.58-0.88-1.17-1.76-1.75-2.64c1.34-0.81,2.89-1.28,4.46-1.34"/>
</g>
</svg>
